<?xml version="1.0" encoding="UTF-8"?><svg xmlns="http://www.w3.org/2000/svg" xmlns:xlink="http://www.w3.org/1999/xlink" fill-opacity="1" color-rendering="auto" color-interpolation="auto" text-rendering="auto" stroke="black" stroke-linecap="square" width="349" stroke-miterlimit="10" shape-rendering="auto" stroke-opacity="1" fill="black" stroke-dasharray="none" font-weight="normal" stroke-width="1" height="191" font-family="'Dialog'" font-style="normal" stroke-linejoin="miter" font-size="12px" stroke-dashoffset="0" image-rendering="auto">
  <!--Generated by ySVG 2.6-->
  <defs id="genericDefs"/>
  <g>
    <defs id="defs1">
      <clipPath clipPathUnits="userSpaceOnUse" id="clipPath1">
        <path d="M0 0 L349 0 L349 191 L0 191 L0 0 Z"/>
      </clipPath>
      <clipPath clipPathUnits="userSpaceOnUse" id="clipPath2">
        <path d="M280 53 L629 53 L629 244 L280 244 L280 53 Z"/>
      </clipPath>
    </defs>
    <g text-rendering="geometricPrecision" stroke-miterlimit="1.45" shape-rendering="geometricPrecision" transform="matrix(1,0,0,1,-280,-53)" stroke-linecap="butt">
      <rect fill="none" x="338.405" width="62.8" height="24.4" y="128.84" clip-path="url(#clipPath2)"/>
    </g>
    <g text-rendering="geometricPrecision" stroke-miterlimit="1.45" shape-rendering="geometricPrecision" font-family="sans-serif" transform="matrix(1,0,0,1,-280,-53)" stroke-linecap="butt">
      <text x="345.8372" xml:space="preserve" y="145.7539" clip-path="url(#clipPath2)" stroke="none"> Склад 1</text>
      <rect fill="none" x="508.065" width="62.8" height="24.4" y="128.84" clip-path="url(#clipPath2)"/>
      <text x="515.4973" xml:space="preserve" y="145.7539" clip-path="url(#clipPath2)" stroke="none"> Склад 2</text>
      <rect fill="none" x="420.525" width="62.8" height="24.4" y="68.56" clip-path="url(#clipPath2)"/>
      <text x="428.9826" xml:space="preserve" y="85.4739" clip-path="url(#clipPath2)" stroke="none">Стоянка</text>
      <rect fill="none" x="295.99" width="62.8" height="24.4" y="189.12" clip-path="url(#clipPath2)"/>
      <text x="299.1097" xml:space="preserve" y="206.0339" clip-path="url(#clipPath2)" stroke="none">Магазин 1</text>
      <rect fill="none" x="380.82" width="62.8" height="24.4" y="189.12" clip-path="url(#clipPath2)"/>
      <text x="383.9397" xml:space="preserve" y="206.0339" clip-path="url(#clipPath2)" stroke="none">Магазин 2</text>
      <rect fill="none" x="550.48" width="62.8" height="24.4" y="189.12" clip-path="url(#clipPath2)"/>
      <text x="553.5997" xml:space="preserve" y="206.0339" clip-path="url(#clipPath2)" stroke="none">Магазин 3</text>
      <rect fill="none" x="465.65" width="62.8" height="24.4" y="189.12" clip-path="url(#clipPath2)"/>
      <text x="468.7697" xml:space="preserve" y="206.0339" clip-path="url(#clipPath2)" stroke="none">Магазин 4</text>
    </g>
    <g stroke-linecap="round" transform="matrix(1,0,0,1,-280,-53)" stroke-dashoffset="2" text-rendering="geometricPrecision" shape-rendering="geometricPrecision" stroke-dasharray="0,4" stroke-miterlimit="1.45">
      <path fill="none" d="M435.3048 92.96 L386.4252 128.84" clip-path="url(#clipPath2)"/>
    </g>
    <g text-rendering="geometricPrecision" stroke-miterlimit="1.45" shape-rendering="geometricPrecision" font-family="sans-serif" transform="matrix(1,0,0,1,-280,-53)" stroke-linecap="butt">
      <text x="382.4995" xml:space="preserve" y="110.2726" clip-path="url(#clipPath2)" stroke="none">1.0</text>
    </g>
    <g stroke-linecap="round" transform="matrix(1,0,0,1,-280,-53)" stroke-dashoffset="2" text-rendering="geometricPrecision" shape-rendering="geometricPrecision" stroke-dasharray="0,4" stroke-miterlimit="1.45">
      <path fill="none" d="M469.6421 92.96 L521.7479 128.84" clip-path="url(#clipPath2)"/>
    </g>
    <g text-rendering="geometricPrecision" stroke-miterlimit="1.45" shape-rendering="geometricPrecision" font-family="sans-serif" transform="matrix(1,0,0,1,-280,-53)" stroke-linecap="butt">
      <text x="513.1699" xml:space="preserve" y="109.8533" clip-path="url(#clipPath2)" stroke="none">1.0</text>
    </g>
    <g stroke-linecap="round" transform="matrix(1,0,0,1,-280,-53)" stroke-dashoffset="2" text-rendering="geometricPrecision" shape-rendering="geometricPrecision" stroke-dasharray="0,4" stroke-miterlimit="1.45">
      <path fill="none" d="M361.2207 153.24 L335.9743 189.12" clip-path="url(#clipPath2)"/>
    </g>
    <g text-rendering="geometricPrecision" stroke-miterlimit="1.45" shape-rendering="geometricPrecision" font-family="sans-serif" transform="matrix(1,0,0,1,-280,-53)" stroke-linecap="butt">
      <text x="325.26" xml:space="preserve" y="172.406" clip-path="url(#clipPath2)" stroke="none">1.0</text>
    </g>
    <g stroke-linecap="round" transform="matrix(1,0,0,1,-280,-53)" stroke-dashoffset="2" text-rendering="geometricPrecision" shape-rendering="geometricPrecision" stroke-dasharray="0,4" stroke-miterlimit="1.45">
      <path fill="none" d="M378.3893 153.24 L403.6357 189.12" clip-path="url(#clipPath2)"/>
    </g>
    <g text-rendering="geometricPrecision" stroke-miterlimit="1.45" shape-rendering="geometricPrecision" font-family="sans-serif" transform="matrix(1,0,0,1,-280,-53)" stroke-linecap="butt">
      <text x="394.4697" xml:space="preserve" y="172.4657" clip-path="url(#clipPath2)" stroke="none">2.0</text>
    </g>
    <g stroke-linecap="round" transform="matrix(1,0,0,1,-280,-53)" stroke-dashoffset="2" text-rendering="geometricPrecision" shape-rendering="geometricPrecision" stroke-dasharray="0,4" stroke-miterlimit="1.45">
      <path fill="none" d="M358.79 201.32 L380.82 201.32" clip-path="url(#clipPath2)"/>
    </g>
    <g text-rendering="geometricPrecision" stroke-miterlimit="1.45" shape-rendering="geometricPrecision" font-family="sans-serif" transform="matrix(1,0,0,1,-280,-53)" stroke-linecap="butt">
      <text x="361.7173" xml:space="preserve" y="221.2883" clip-path="url(#clipPath2)" stroke="none">1.0</text>
    </g>
    <g stroke-linecap="round" transform="matrix(1,0,0,1,-280,-53)" stroke-dashoffset="2" text-rendering="geometricPrecision" shape-rendering="geometricPrecision" stroke-dasharray="0,4" stroke-miterlimit="1.45">
      <path fill="none" d="M548.0493 153.24 L573.2957 189.12" clip-path="url(#clipPath2)"/>
    </g>
    <g text-rendering="geometricPrecision" stroke-miterlimit="1.45" shape-rendering="geometricPrecision" font-family="sans-serif" transform="matrix(1,0,0,1,-280,-53)" stroke-linecap="butt">
      <text x="570.0742" xml:space="preserve" y="173.0412" clip-path="url(#clipPath2)" stroke="none">3.0</text>
    </g>
    <g stroke-linecap="round" transform="matrix(1,0,0,1,-280,-53)" stroke-dashoffset="2" text-rendering="geometricPrecision" shape-rendering="geometricPrecision" stroke-dasharray="0,4" stroke-miterlimit="1.45">
      <path fill="none" d="M550.48 201.32 L528.45 201.32" clip-path="url(#clipPath2)"/>
    </g>
    <g text-rendering="geometricPrecision" stroke-miterlimit="1.45" shape-rendering="geometricPrecision" font-family="sans-serif" transform="matrix(1,0,0,1,-280,-53)" stroke-linecap="butt">
      <text x="531.1242" xml:space="preserve" y="223.9097" clip-path="url(#clipPath2)" stroke="none">2.0</text>
    </g>
  </g>
</svg>
