<?xml version="1.0" encoding="UTF-8"?><svg xmlns="http://www.w3.org/2000/svg" xmlns:xlink="http://www.w3.org/1999/xlink" fill-opacity="1" color-rendering="auto" color-interpolation="auto" text-rendering="auto" stroke="black" stroke-linecap="square" width="349" stroke-miterlimit="10" shape-rendering="auto" stroke-opacity="1" fill="black" stroke-dasharray="none" font-weight="normal" stroke-width="1" height="191" font-family="'Dialog'" font-style="normal" stroke-linejoin="miter" font-size="12px" stroke-dashoffset="0" image-rendering="auto">
  <!--Generated by ySVG 2.6-->
  <defs id="genericDefs"/>
  <g>
    <defs id="defs1">
      <clipPath clipPathUnits="userSpaceOnUse" id="clipPath1">
        <path d="M0 0 L349 0 L349 191 L0 191 L0 0 Z"/>
      </clipPath>
      <clipPath clipPathUnits="userSpaceOnUse" id="clipPath2">
        <path d="M306 79 L655 79 L655 270 L306 270 L306 79 Z"/>
      </clipPath>
    </defs>
    <g text-rendering="geometricPrecision" stroke-miterlimit="1.45" shape-rendering="geometricPrecision" transform="matrix(1,0,0,1,-306,-79)" stroke-linecap="butt">
      <rect fill="none" x="364.395" width="62.8" height="24.4" y="154.4" clip-path="url(#clipPath2)"/>
    </g>
    <g text-rendering="geometricPrecision" stroke-miterlimit="1.45" shape-rendering="geometricPrecision" font-family="sans-serif" transform="matrix(1,0,0,1,-306,-79)" stroke-linecap="butt">
      <text x="371.8272" xml:space="preserve" y="171.3139" clip-path="url(#clipPath2)" stroke="none"> Склад 1</text>
      <rect fill="none" x="534.055" width="62.8" height="24.4" y="154.4" clip-path="url(#clipPath2)"/>
      <text x="541.4872" xml:space="preserve" y="171.3139" clip-path="url(#clipPath2)" stroke="none"> Склад 2</text>
      <rect fill="none" x="446.515" width="62.8" height="24.4" y="94.12" clip-path="url(#clipPath2)"/>
      <text x="454.9726" xml:space="preserve" y="111.0339" clip-path="url(#clipPath2)" stroke="none">Стоянка</text>
      <rect fill="none" x="321.98" width="62.8" height="24.4" y="214.68" clip-path="url(#clipPath2)"/>
      <text x="325.0997" xml:space="preserve" y="231.5939" clip-path="url(#clipPath2)" stroke="none">Магазин 1</text>
      <rect fill="none" x="406.81" width="62.8" height="24.4" y="214.68" clip-path="url(#clipPath2)"/>
      <text x="409.9297" xml:space="preserve" y="231.5939" clip-path="url(#clipPath2)" stroke="none">Магазин 2</text>
      <rect fill="none" x="576.47" width="62.8" height="24.4" y="214.68" clip-path="url(#clipPath2)"/>
      <text x="579.5897" xml:space="preserve" y="231.5939" clip-path="url(#clipPath2)" stroke="none">Магазин 3</text>
      <rect fill="none" x="487.254" width="62.8" height="24.4" y="214.68" clip-path="url(#clipPath2)"/>
      <text x="490.3737" xml:space="preserve" y="231.5939" clip-path="url(#clipPath2)" stroke="none">Магазин 4</text>
      <path fill="none" d="M446.5007 114.3544 L395.7351 149.8209" clip-path="url(#clipPath2)"/>
      <path d="M389.177 154.4025 L401.8777 151.6288 L396.5548 149.2482 L396.1506 143.4312 Z" clip-path="url(#clipPath2)" stroke="none"/>
      <text x="395.9634" xml:space="preserve" y="128.8408" clip-path="url(#clipPath2)" stroke="none">1.0</text>
      <path fill="none" d="M495.6321 118.52 L541.1489 149.8629" clip-path="url(#clipPath2)"/>
      <path d="M547.7379 154.4 L540.6901 143.4762 L540.3253 149.2957 L535.0187 151.7124 Z" clip-path="url(#clipPath2)" stroke="none"/>
      <text x="549.4369" xml:space="preserve" y="125.1626" clip-path="url(#clipPath2)" stroke="none">1.0</text>
      <path fill="none" d="M451.4872 118.5169 L409.2529 149.637" clip-path="url(#clipPath2)"/>
      <path d="M402.8125 154.3826 L415.4391 151.2894 L410.058 149.0438 L409.5071 143.2389 Z" clip-path="url(#clipPath2)" stroke="none"/>
      <path fill="none" d="M461.2948 118.52 L418.8642 149.6661" clip-path="url(#clipPath2)"/>
      <path d="M412.4152 154.4 L425.0474 151.3298 L419.6703 149.0744 L419.1301 143.2685 Z" clip-path="url(#clipPath2)" stroke="none"/>
      <path fill="none" d="M509.2873 108.2269 L564.9388 149.6469" clip-path="url(#clipPath2)"/>
      <path d="M571.3564 154.4234 L564.7153 143.2477 L564.1367 149.0499 L558.7448 151.2697 Z" clip-path="url(#clipPath2)" stroke="none"/>
      <path fill="none" d="M374.6137 178.8147 L350.7918 208.4536" clip-path="url(#clipPath2)"/>
      <path d="M345.7801 214.6891 L357.1949 208.4682 L351.4183 207.6741 L349.4005 202.2034 Z" clip-path="url(#clipPath2)" stroke="none"/>
      <text x="336.7096" xml:space="preserve" y="197.5294" clip-path="url(#clipPath2)" stroke="none">1.0</text>
      <path fill="none" d="M387.2107 178.8 L366.568 208.1373" clip-path="url(#clipPath2)"/>
      <path d="M361.9643 214.68 L372.959 207.7433 L367.1434 207.3195 L364.7806 201.9887 Z" clip-path="url(#clipPath2)" stroke="none"/>
      <path fill="none" d="M404.3793 178.8 L425.022 208.1373" clip-path="url(#clipPath2)"/>
      <path d="M429.6257 214.68 L426.8094 201.9887 L424.4466 207.3195 L418.631 207.7433 Z" clip-path="url(#clipPath2)" stroke="none"/>
      <text x="420.4597" xml:space="preserve" y="198.0257" clip-path="url(#clipPath2)" stroke="none">2.0</text>
    </g>
    <g stroke-linecap="round" transform="matrix(1,0,0,1,-306,-79)" stroke-dashoffset="2" text-rendering="geometricPrecision" shape-rendering="geometricPrecision" stroke-dasharray="0,4" stroke-miterlimit="1.45">
      <path fill="none" d="M384.78 226.88 L406.81 226.88" clip-path="url(#clipPath2)"/>
    </g>
    <g text-rendering="geometricPrecision" stroke-miterlimit="1.45" shape-rendering="geometricPrecision" font-family="sans-serif" transform="matrix(1,0,0,1,-306,-79)" stroke-linecap="butt">
      <text x="387.7073" xml:space="preserve" y="246.8483" clip-path="url(#clipPath2)" stroke="none">1.0</text>
      <path fill="none" d="M574.0393 178.8 L594.6821 208.1373" clip-path="url(#clipPath2)"/>
      <path d="M599.2857 214.68 L596.4694 201.9887 L594.1066 207.3195 L588.2911 207.7433 Z" clip-path="url(#clipPath2)" stroke="none"/>
      <text x="615.9503" xml:space="preserve" y="185.5764" clip-path="url(#clipPath2)" stroke="none">3.0</text>
      <path fill="none" d="M596.864 176.4431 L620.2407 208.2232" clip-path="url(#clipPath2)"/>
      <path d="M624.981 214.6675 L621.8983 202.0383 L619.6482 207.4177 L613.8428 207.9637 Z" clip-path="url(#clipPath2)" stroke="none"/>
      <path fill="none" d="M576.47 226.88 L558.054 226.88" clip-path="url(#clipPath2)"/>
      <path d="M550.054 226.88 L562.054 231.88 L559.054 226.88 L562.054 221.88 Z" clip-path="url(#clipPath2)" stroke="none"/>
      <text x="554.9212" xml:space="preserve" y="249.4697" clip-path="url(#clipPath2)" stroke="none">2.0</text>
    </g>
  </g>
</svg>
