<?xml version="1.0" encoding="UTF-8"?><svg xmlns="http://www.w3.org/2000/svg" xmlns:xlink="http://www.w3.org/1999/xlink" fill-opacity="1" color-rendering="auto" color-interpolation="auto" text-rendering="auto" stroke="black" stroke-linecap="square" width="385" stroke-miterlimit="10" shape-rendering="auto" stroke-opacity="1" fill="black" stroke-dasharray="none" font-weight="normal" stroke-width="1" height="904" font-family="'Dialog'" font-style="normal" stroke-linejoin="miter" font-size="12px" stroke-dashoffset="0" image-rendering="auto">
  <!--Generated by ySVG 2.6-->
  <defs id="genericDefs"/>
  <g>
    <defs id="defs1">
      <clipPath clipPathUnits="userSpaceOnUse" id="clipPath1">
        <path d="M0 0 L385 0 L385 904 L0 904 L0 0 Z"/>
      </clipPath>
      <clipPath clipPathUnits="userSpaceOnUse" id="clipPath2">
        <path d="M279 54 L664 54 L664 958 L279 958 L279 54 Z"/>
      </clipPath>
    </defs>
    <g text-rendering="geometricPrecision" stroke-miterlimit="1.45" shape-rendering="geometricPrecision" transform="matrix(1,0,0,1,-279,-54)" stroke-linecap="butt">
      <rect x="299" y="69.686" clip-path="url(#clipPath2)" fill="none" width="232" rx="20" ry="20" height="40"/>
      <text x="346.3398" xml:space="preserve" y="94.3998" clip-path="url(#clipPath2)" font-family="sans-serif" stroke="none">Начало min_elem_routes</text>
    </g>
    <g text-rendering="geometricPrecision" stroke-miterlimit="1.45" shape-rendering="geometricPrecision" transform="matrix(1,0,0,1,-279,-54)" stroke-linecap="butt">
      <rect x="294.4981" y="902.3606" clip-path="url(#clipPath2)" fill="none" width="241.0038" rx="20" ry="20" height="40"/>
      <text x="398.0811" xml:space="preserve" y="927.0745" clip-path="url(#clipPath2)" font-family="sans-serif" stroke="none">Конец</text>
    </g>
    <g text-rendering="geometricPrecision" stroke-miterlimit="1.45" shape-rendering="geometricPrecision" transform="matrix(1,0,0,1,-279,-54)" stroke-linecap="butt">
      <path fill="none" d="M299 176.9871 L531 176.9871 L531 200.7371 L299 200.7371 Z" clip-path="url(#clipPath2)"/>
      <text x="377.1455" xml:space="preserve" y="193.576" clip-path="url(#clipPath2)" font-family="sans-serif" stroke="none">all_routes := []</text>
    </g>
    <g text-rendering="geometricPrecision" stroke-miterlimit="1.45" shape-rendering="geometricPrecision" transform="matrix(1,0,0,1,-279,-54)" stroke-linecap="butt">
      <path fill="none" d="M309 210.4871 L521 210.4871 L531 220.4871 L531 234.2371 L299 234.2371 L299 220.4871 Z" clip-path="url(#clipPath2)"/>
      <text x="322.6943" xml:space="preserve" y="227.076" clip-path="url(#clipPath2)" font-family="sans-serif" stroke="none">Для каждого потребителя c в sys</text>
    </g>
    <g text-rendering="geometricPrecision" stroke-miterlimit="1.45" shape-rendering="geometricPrecision" transform="matrix(1,0,0,1,-279,-54)" stroke-linecap="butt">
      <path fill="none" d="M309 243.9871 L521 243.9871 L531 253.9871 L531 267.7371 L299 267.7371 L299 253.9871 Z" clip-path="url(#clipPath2)"/>
      <text x="318.5605" xml:space="preserve" y="260.576" clip-path="url(#clipPath2)" font-family="sans-serif" stroke="none">Для каждого склада w, смежного c</text>
    </g>
    <g text-rendering="geometricPrecision" stroke-miterlimit="1.45" shape-rendering="geometricPrecision" transform="matrix(1,0,0,1,-279,-54)" stroke-linecap="butt">
      <path fill="none" d="M299 273.9344 L531 273.9344 L531 313.9344 L299 313.9344 Z" clip-path="url(#clipPath2)"/>
      <text x="329.5117" xml:space="preserve" y="291.2977" clip-path="url(#clipPath2)" font-family="sans-serif" stroke="none">Добавить в all_routes маршрут</text>
      <text x="374.0605" xml:space="preserve" y="305.9988" clip-path="url(#clipPath2)" font-family="sans-serif" stroke="none">(Стоянка, w, c)</text>
    </g>
    <g text-rendering="geometricPrecision" stroke-miterlimit="1.45" shape-rendering="geometricPrecision" transform="matrix(1,0,0,1,-279,-54)" stroke-linecap="butt">
      <path fill="none" d="M299 322.8574 L531 322.8574 L531 336.6074 L521 346.6074 L309 346.6074 L299 336.6074 Z" clip-path="url(#clipPath2)"/>
      <text x="323.2715" xml:space="preserve" y="339.4463" clip-path="url(#clipPath2)" font-family="sans-serif" stroke="none">Конец цикла для каждого склада</text>
    </g>
    <g text-rendering="geometricPrecision" stroke-miterlimit="1.45" shape-rendering="geometricPrecision" transform="matrix(1,0,0,1,-279,-54)" stroke-linecap="butt">
      <path fill="none" d="M299 355.5304 L531 355.5304 L531 369.2804 L521 379.2804 L309 379.2804 L299 369.2804 Z" clip-path="url(#clipPath2)"/>
      <text x="306.9414" xml:space="preserve" y="372.1193" clip-path="url(#clipPath2)" font-family="sans-serif" stroke="none">Конец цикла для каждого потребителя</text>
    </g>
    <g text-rendering="geometricPrecision" stroke-miterlimit="1.45" shape-rendering="geometricPrecision" transform="matrix(1,0,0,1,-279,-54)" stroke-linecap="butt">
      <path fill="none" d="M299 388.2034 L531 388.2034 L531 428.2034 L299 428.2034 Z" clip-path="url(#clipPath2)"/>
      <text x="306.6016" xml:space="preserve" y="405.5667" clip-path="url(#clipPath2)" font-family="sans-serif" stroke="none">Сортировка all_routes по возрастанию </text>
      <text x="342.9648" xml:space="preserve" y="420.2679" clip-path="url(#clipPath2)" font-family="sans-serif" stroke="none">протяжённости маршрута</text>
    </g>
    <g text-rendering="geometricPrecision" stroke-miterlimit="1.45" shape-rendering="geometricPrecision" transform="matrix(1,0,0,1,-279,-54)" stroke-linecap="butt">
      <path fill="none" d="M309 489.4099 L521 489.4099 L531 499.4099 L531 513.1599 L299 513.1599 L299 499.4099 Z" clip-path="url(#clipPath2)"/>
      <text x="314.2773" xml:space="preserve" y="505.9987" clip-path="url(#clipPath2)" font-family="sans-serif" stroke="none">Для каждого маршрута r в all_routes</text>
    </g>
    <g text-rendering="geometricPrecision" stroke-miterlimit="1.45" shape-rendering="geometricPrecision" transform="matrix(1,0,0,1,-279,-54)" stroke-linecap="butt">
      <path fill="none" d="M299 458.2034 L531 458.2034 L531 481.9534 L299 481.9534 Z" clip-path="url(#clipPath2)"/>
      <text x="386.4854" xml:space="preserve" y="474.7923" clip-path="url(#clipPath2)" font-family="sans-serif" stroke="none">routes := []</text>
    </g>
    <g text-rendering="geometricPrecision" stroke-miterlimit="1.45" shape-rendering="geometricPrecision" transform="matrix(1,0,0,1,-279,-54)" stroke-linecap="butt">
      <path fill="none" d="M299 520.6164 L531 520.6164 L531 544.3664 L299 544.3664 Z" clip-path="url(#clipPath2)"/>
      <text x="307.6562" xml:space="preserve" y="537.2053" clip-path="url(#clipPath2)" font-family="sans-serif" stroke="none">c, w := потребитель, склад маршрута r</text>
    </g>
    <g text-rendering="geometricPrecision" stroke-miterlimit="1.45" shape-rendering="geometricPrecision" transform="matrix(1,0,0,1,-279,-54)" stroke-linecap="butt">
      <path fill="none" d="M294.4981 856.2878 L535.5019 856.2878 L535.5019 870.0378 L525.5019 880.0378 L304.4981 880.0378 L294.4981 870.0378 Z" clip-path="url(#clipPath2)"/>
      <text x="314.5381" xml:space="preserve" y="872.8766" clip-path="url(#clipPath2)" font-family="sans-serif" stroke="none">Конец цикла для каждого маршрута</text>
    </g>
    <g text-rendering="geometricPrecision" stroke-miterlimit="1.45" shape-rendering="geometricPrecision" transform="matrix(1,0,0,1,-279,-54)" stroke-linecap="butt">
      <path fill="none" d="M299 552.5974 L531 552.5974 L531 576.3474 L299 576.3474 Z" clip-path="url(#clipPath2)"/>
      <text x="341.4883" xml:space="preserve" y="569.1863" clip-path="url(#clipPath2)" font-family="sans-serif" stroke="none">prod := заказ c ⋂ запасы w</text>
    </g>
    <g text-rendering="geometricPrecision" stroke-miterlimit="1.45" shape-rendering="geometricPrecision" transform="matrix(1,0,0,1,-279,-54)" stroke-linecap="butt">
      <path fill="none" d="M299 584.5784 L531 584.5784 L531 624.5784 L299 624.5784 Z" clip-path="url(#clipPath2)"/>
      <text x="310.583" xml:space="preserve" y="601.9417" clip-path="url(#clipPath2)" font-family="sans-serif" stroke="none">Выделение наименее используемого</text>
      <text x="348.4844" xml:space="preserve" y="616.6428" clip-path="url(#clipPath2)" font-family="sans-serif" stroke="none"> трнаспорта truck из sys</text>
    </g>
    <g text-rendering="geometricPrecision" stroke-miterlimit="1.45" shape-rendering="geometricPrecision" transform="matrix(1,0,0,1,-279,-54)" stroke-linecap="butt">
      <path fill="none" d="M415 632.8094 L531 664.3094 L415 695.8094 L299 664.3094 Z" clip-path="url(#clipPath2)"/>
      <text x="375.1709" xml:space="preserve" y="661.6727" clip-path="url(#clipPath2)" font-family="sans-serif" stroke="none">Объём prod &gt; </text>
      <text x="352.3457" xml:space="preserve" y="676.3738" clip-path="url(#clipPath2)" font-family="sans-serif" stroke="none">вместительность truck</text>
    </g>
    <g text-rendering="geometricPrecision" stroke-miterlimit="1.45" shape-rendering="geometricPrecision" transform="matrix(1,0,0,1,-279,-54)" stroke-linecap="butt">
      <path fill="none" d="M453.3702 704.0404 L648.6298 704.0404 L648.6298 727.7904 L453.3702 727.7904 Z" clip-path="url(#clipPath2)"/>
      <text x="455.8848" xml:space="preserve" y="720.6293" clip-path="url(#clipPath2)" font-family="sans-serif" stroke="none">Уменьшение prod по объёму truck</text>
    </g>
    <g text-rendering="geometricPrecision" stroke-miterlimit="1.45" shape-rendering="geometricPrecision" transform="matrix(1,0,0,1,-279,-54)" stroke-linecap="butt">
      <path fill="none" d="M453.3702 738.5758 L648.6298 738.5758 L648.6298 762.3258 L453.3702 762.3258 Z" clip-path="url(#clipPath2)"/>
      <text x="474.2451" xml:space="preserve" y="755.1647" clip-path="url(#clipPath2)" font-family="sans-serif" stroke="none">Дублирование r в all_routes</text>
    </g>
    <g text-rendering="geometricPrecision" stroke-miterlimit="1.45" shape-rendering="geometricPrecision" transform="matrix(1,0,0,1,-279,-54)" stroke-linecap="butt">
      <path fill="none" d="M294.4981 792.3258 L535.5019 792.3258 L535.5019 816.0758 L294.4981 816.0758 Z" clip-path="url(#clipPath2)"/>
      <text x="318.0273" xml:space="preserve" y="808.9147" clip-path="url(#clipPath2)" font-family="sans-serif" stroke="none">Изменение балансов c и w на prod</text>
    </g>
    <g text-rendering="geometricPrecision" stroke-miterlimit="1.45" shape-rendering="geometricPrecision" transform="matrix(1,0,0,1,-279,-54)" stroke-linecap="butt">
      <path fill="none" d="M294.4981 824.3068 L535.5019 824.3068 L535.5019 848.0568 L294.4981 848.0568 Z" clip-path="url(#clipPath2)"/>
      <text x="305.7256" xml:space="preserve" y="840.8957" clip-path="url(#clipPath2)" font-family="sans-serif" stroke="none">Добавление в маршрут перевозки prod</text>
    </g>
    <g text-rendering="geometricPrecision" stroke-miterlimit="1.45" shape-rendering="geometricPrecision" transform="matrix(1,0,0,1,-279,-54)" stroke-linecap="butt">
      <rect fill="none" x="299" width="232" height="40" y="129.7435" clip-path="url(#clipPath2)"/>
      <path fill="none" d="M309 129.7435 L309 169.7435 M521 129.7435 L521 169.7435 M309 129.7435 Z" clip-path="url(#clipPath2)"/>
      <text x="338.1777" xml:space="preserve" y="147.1068" clip-path="url(#clipPath2)" font-family="sans-serif" stroke="none">Вычисление минимальных </text>
      <text x="338.6523" xml:space="preserve" y="161.808" clip-path="url(#clipPath2)" font-family="sans-serif" stroke="none">попарных расстояний в sys</text>
    </g>
    <g text-rendering="geometricPrecision" stroke-miterlimit="1.45" shape-rendering="geometricPrecision" transform="matrix(1,0,0,1,-279,-54)" stroke-linecap="butt">
      <path fill="none" d="M415 200.7376 L415 210.4939" clip-path="url(#clipPath2)"/>
    </g>
    <g text-rendering="geometricPrecision" stroke-miterlimit="1.45" shape-rendering="geometricPrecision" transform="matrix(1,0,0,1,-279,-54)" stroke-linecap="butt">
      <path fill="none" d="M415 234.2376 L415 243.9939" clip-path="url(#clipPath2)"/>
      <path fill="none" d="M415 267.7225 L415 273.9427" clip-path="url(#clipPath2)"/>
      <path fill="none" d="M415 313.8951 L415 322.8893" clip-path="url(#clipPath2)"/>
      <path fill="none" d="M415 346.6338 L415 355.5185" clip-path="url(#clipPath2)"/>
      <path fill="none" d="M415 379.3181 L415 388.2037" clip-path="url(#clipPath2)"/>
      <path fill="none" d="M415 428.1738 L415 450.17" clip-path="url(#clipPath2)"/>
      <path d="M415 458.17 L420 446.17 L415 449.17 L410 446.17 Z" clip-path="url(#clipPath2)" stroke="none"/>
      <path fill="none" d="M415 481.9332 L415 489.3791" clip-path="url(#clipPath2)"/>
      <path fill="none" d="M415 513.1397 L415 520.5856" clip-path="url(#clipPath2)"/>
      <path fill="none" d="M415 880.045 L415 894.4012" clip-path="url(#clipPath2)"/>
      <path d="M415 902.4012 L420 890.4012 L415 893.4012 L410 890.4012 Z" clip-path="url(#clipPath2)" stroke="none"/>
      <path fill="none" d="M415 544.3906 L415 552.588" clip-path="url(#clipPath2)"/>
      <path fill="none" d="M415 576.3397 L415 584.5851" clip-path="url(#clipPath2)"/>
      <path fill="none" d="M415 624.5568 L415 632.8256" clip-path="url(#clipPath2)"/>
      <path fill="none" d="M530.9785 664.3094 L551 664.3094 L551 696.047" clip-path="url(#clipPath2)"/>
      <path d="M551 704.047 L556 692.047 L551 695.047 L546 692.047 Z" clip-path="url(#clipPath2)" stroke="none"/>
      <text x="532.0616" xml:space="preserve" y="657.0485" clip-path="url(#clipPath2)" font-family="sans-serif" stroke="none">Да</text>
      <path fill="none" d="M551 727.8207 L551 738.5612" clip-path="url(#clipPath2)"/>
      <path fill="none" d="M415 695.8328 L415 784.3216" clip-path="url(#clipPath2)"/>
      <path d="M415 792.3216 L420 780.3216 L415 783.3216 L410 780.3216 Z" clip-path="url(#clipPath2)" stroke="none"/>
      <path fill="none" d="M551 762.3409 L551 773.4234 L423.6019 773.4234" clip-path="url(#clipPath2)"/>
      <path d="M415.6019 773.4234 L427.6019 778.4234 L424.6019 773.4234 L427.6019 768.4234 Z" clip-path="url(#clipPath2)" stroke="none"/>
      <path fill="none" d="M415 816.1 L415 824.2974" clip-path="url(#clipPath2)"/>
      <path fill="none" d="M415 848.081 L415 856.2784" clip-path="url(#clipPath2)"/>
      <path fill="none" d="M415 109.7149 L415 121.7683" clip-path="url(#clipPath2)"/>
      <path d="M415 129.7683 L420 117.7683 L415 120.7683 L410 117.7683 Z" clip-path="url(#clipPath2)" stroke="none"/>
      <path fill="none" d="M415 169.723 L415 177.0123" clip-path="url(#clipPath2)"/>
    </g>
  </g>
</svg>
