<?xml version="1.0" encoding="UTF-8"?><svg xmlns="http://www.w3.org/2000/svg" xmlns:xlink="http://www.w3.org/1999/xlink" fill-opacity="1" color-rendering="auto" color-interpolation="auto" text-rendering="auto" stroke="black" stroke-linecap="square" width="408" stroke-miterlimit="10" shape-rendering="auto" stroke-opacity="1" fill="black" stroke-dasharray="none" font-weight="normal" stroke-width="1" height="185" font-family="'Dialog'" font-style="normal" stroke-linejoin="miter" font-size="12px" stroke-dashoffset="0" image-rendering="auto">
  <!--Generated by ySVG 2.6-->
  <defs id="genericDefs"/>
  <g>
    <defs id="defs1">
      <clipPath clipPathUnits="userSpaceOnUse" id="clipPath1">
        <path d="M0 0 L408 0 L408 185 L0 185 L0 0 Z"/>
      </clipPath>
      <clipPath clipPathUnits="userSpaceOnUse" id="clipPath2">
        <path d="M276 76 L684 76 L684 261 L276 261 L276 76 Z"/>
      </clipPath>
    </defs>
    <g text-rendering="geometricPrecision" stroke-miterlimit="1.45" shape-rendering="geometricPrecision" transform="matrix(1,0,0,1,-276,-76)" stroke-linecap="butt">
      <rect fill="none" x="349.195" width="62.8" height="29.008" y="148.6224" clip-path="url(#clipPath2)"/>
    </g>
    <g text-rendering="geometricPrecision" stroke-miterlimit="1.45" shape-rendering="geometricPrecision" font-family="sans-serif" transform="matrix(1,0,0,1,-276,-76)" stroke-linecap="butt">
      <text x="356.6272" xml:space="preserve" y="160.4897" clip-path="url(#clipPath2)" stroke="none"> Склад 1</text>
      <text x="372.2542" xml:space="preserve" y="175.1909" clip-path="url(#clipPath2)" stroke="none">1.0</text>
      <rect fill="none" x="546.7201" width="62.8" height="29.008" y="148.6224" clip-path="url(#clipPath2)"/>
      <text x="554.1523" xml:space="preserve" y="160.4897" clip-path="url(#clipPath2)" stroke="none"> Склад 2</text>
      <text x="569.7792" xml:space="preserve" y="175.1909" clip-path="url(#clipPath2)" stroke="none">1.0</text>
      <rect fill="none" x="450.5861" width="62.8" height="29.008" y="94.12" clip-path="url(#clipPath2)"/>
      <text x="459.0437" xml:space="preserve" y="105.9873" clip-path="url(#clipPath2)" stroke="none">Стоянка</text>
      <text x="473.6453" xml:space="preserve" y="120.6885" clip-path="url(#clipPath2)" stroke="none">0.0</text>
      <rect fill="none" x="291.58" width="62.8" height="29.008" y="214.68" clip-path="url(#clipPath2)"/>
      <text x="294.6997" xml:space="preserve" y="226.5473" clip-path="url(#clipPath2)" stroke="none">Магазин 1</text>
      <text x="314.6392" xml:space="preserve" y="241.2485" clip-path="url(#clipPath2)" stroke="none">2.0</text>
      <rect fill="none" x="406.81" width="62.8" height="29.008" y="214.68" clip-path="url(#clipPath2)"/>
      <text x="409.9297" xml:space="preserve" y="226.5473" clip-path="url(#clipPath2)" stroke="none">Магазин 2</text>
      <text x="429.8692" xml:space="preserve" y="241.2485" clip-path="url(#clipPath2)" stroke="none">3.0</text>
      <rect fill="none" x="606.1861" width="62.8" height="29.008" y="214.68" clip-path="url(#clipPath2)"/>
      <text x="609.3058" xml:space="preserve" y="226.5473" clip-path="url(#clipPath2)" stroke="none">Магазин 3</text>
      <text x="629.2453" xml:space="preserve" y="241.2485" clip-path="url(#clipPath2)" stroke="none">4.0</text>
      <rect fill="none" x="487.254" width="62.8" height="29.008" y="214.68" clip-path="url(#clipPath2)"/>
      <text x="490.3737" xml:space="preserve" y="226.5473" clip-path="url(#clipPath2)" stroke="none">Магазин 4</text>
      <text x="510.3132" xml:space="preserve" y="241.2485" clip-path="url(#clipPath2)" stroke="none">6.0</text>
      <path fill="none" d="M450.564 115.0728 L378.6457 145.5212" clip-path="url(#clipPath2)"/>
      <path d="M371.2787 148.6402 L384.2785 148.566 L379.5666 145.1313 L380.3798 139.3573 Z" clip-path="url(#clipPath2)" stroke="none"/>
      <text x="391.7929" xml:space="preserve" y="123.5941" clip-path="url(#clipPath2)" stroke="none">1.0</text>
      <path fill="none" d="M512.7603 123.1271 L557.2009 145.0721" clip-path="url(#clipPath2)"/>
      <path d="M564.374 148.6142 L555.8282 138.8178 L556.3043 144.6293 L551.4005 147.7842 Z" clip-path="url(#clipPath2)" stroke="none"/>
      <text x="563.0208" xml:space="preserve" y="130.7475" clip-path="url(#clipPath2)" stroke="none">1.0</text>
      <path fill="none" d="M450.5982 119.8946 L394.2637 145.3267" clip-path="url(#clipPath2)"/>
      <path d="M386.9723 148.6184 L399.9667 148.238 L395.1751 144.9152 L395.8521 139.1237 Z" clip-path="url(#clipPath2)" stroke="none"/>
      <path fill="none" d="M349.187 177.2686 L309.951 209.5991" clip-path="url(#clipPath2)"/>
      <path d="M303.777 214.6864 L316.2176 210.9141 L310.7227 208.9631 L309.8584 203.1966 Z" clip-path="url(#clipPath2)" stroke="none"/>
      <text x="316.91" xml:space="preserve" y="183.213" clip-path="url(#clipPath2)" stroke="none">1.0</text>
      <path fill="none" d="M362.6685 177.6304 L323.0823 209.6589" clip-path="url(#clipPath2)"/>
      <path d="M316.863 214.6909 L329.3369 211.03 L323.8597 209.03 L323.047 203.2559 Z" clip-path="url(#clipPath2)" stroke="none"/>
    </g>
    <g stroke-linecap="round" transform="matrix(1,0,0,1,-276,-76)" stroke-dashoffset="2" text-rendering="geometricPrecision" shape-rendering="geometricPrecision" stroke-dasharray="0,4" stroke-miterlimit="1.45">
      <path fill="none" d="M393.2453 177.6304 L425.5597 214.68" clip-path="url(#clipPath2)"/>
    </g>
    <g text-rendering="geometricPrecision" stroke-miterlimit="1.45" shape-rendering="geometricPrecision" font-family="sans-serif" transform="matrix(1,0,0,1,-276,-76)" stroke-linecap="butt">
      <text x="409.82" xml:space="preserve" y="193.2301" clip-path="url(#clipPath2)" stroke="none">2.0</text>
      <path fill="none" d="M354.38 229.184 L398.81 229.184" clip-path="url(#clipPath2)"/>
      <path d="M406.81 229.184 L394.81 224.184 L397.81 229.184 L394.81 234.184 Z" clip-path="url(#clipPath2)" stroke="none"/>
      <text x="372.2542" xml:space="preserve" y="226.2885" clip-path="url(#clipPath2)" stroke="none">1.0</text>
      <path fill="none" d="M594.5026 177.6304 L630.3351 209.3541" clip-path="url(#clipPath2)"/>
      <path d="M636.325 214.657 L630.6545 202.9589 L629.5864 208.6912 L624.0258 210.4462 Z" clip-path="url(#clipPath2)" stroke="none"/>
      <text x="621.3633" xml:space="preserve" y="188.3947" clip-path="url(#clipPath2)" stroke="none">3.0</text>
      <path fill="none" d="M606.1861 229.184 L558.054 229.184" clip-path="url(#clipPath2)"/>
      <path d="M550.054 229.184 L562.054 234.184 L559.054 229.184 L562.054 224.184 Z" clip-path="url(#clipPath2)" stroke="none"/>
      <text x="571.2395" xml:space="preserve" y="228.0567" clip-path="url(#clipPath2)" stroke="none">2.0</text>
    </g>
  </g>
</svg>
