<?xml version="1.0" encoding="UTF-8"?><svg xmlns="http://www.w3.org/2000/svg" xmlns:xlink="http://www.w3.org/1999/xlink" fill-opacity="1" color-rendering="auto" color-interpolation="auto" text-rendering="auto" stroke="black" stroke-linecap="square" width="451" stroke-miterlimit="10" shape-rendering="auto" stroke-opacity="1" fill="black" stroke-dasharray="none" font-weight="normal" stroke-width="1" height="206" font-family="'Dialog'" font-style="normal" stroke-linejoin="miter" font-size="12px" stroke-dashoffset="0" image-rendering="auto">
  <!--Generated by ySVG 2.6-->
  <defs id="genericDefs"/>
  <g>
    <defs id="defs1">
      <clipPath clipPathUnits="userSpaceOnUse" id="clipPath1">
        <path d="M0 0 L451 0 L451 206 L0 206 L0 0 Z"/>
      </clipPath>
      <clipPath clipPathUnits="userSpaceOnUse" id="clipPath2">
        <path d="M196 2 L647 2 L647 208 L196 208 L196 2 Z"/>
      </clipPath>
    </defs>
    <g fill="white" text-rendering="geometricPrecision" shape-rendering="geometricPrecision" transform="translate(-196,-2)" stroke="white">
      <rect x="196" width="451" height="206" y="2" clip-path="url(#clipPath2)" stroke="none"/>
    </g>
    <g text-rendering="geometricPrecision" stroke-miterlimit="1.45" shape-rendering="geometricPrecision" transform="matrix(1,0,0,1,-196,-2)" stroke-linecap="butt">
      <rect fill="none" x="298.6" width="62.8" height="24.4" y="92.8" clip-path="url(#clipPath2)"/>
      <text x="306.0322" xml:space="preserve" y="109.7139" clip-path="url(#clipPath2)" font-family="sans-serif" stroke="none"> Склад 1</text>
      <rect fill="none" x="478.6" width="62.8" height="24.4" y="92.8" clip-path="url(#clipPath2)"/>
      <text x="486.0322" xml:space="preserve" y="109.7139" clip-path="url(#clipPath2)" font-family="sans-serif" stroke="none"> Склад 2</text>
      <rect fill="none" x="385.8" width="62.8" height="24.4" y="17.8" clip-path="url(#clipPath2)"/>
      <text x="394.2576" xml:space="preserve" y="34.7139" clip-path="url(#clipPath2)" font-family="sans-serif" stroke="none">Стоянка</text>
      <rect fill="none" x="211.4" width="62.8" height="24.4" y="167.8" clip-path="url(#clipPath2)"/>
      <text x="214.5197" xml:space="preserve" y="184.7139" clip-path="url(#clipPath2)" font-family="sans-serif" stroke="none">Магазин 1</text>
      <rect fill="none" x="298.6" width="62.8" height="24.4" y="167.8" clip-path="url(#clipPath2)"/>
      <text x="301.7197" xml:space="preserve" y="184.7139" clip-path="url(#clipPath2)" font-family="sans-serif" stroke="none">Магазин 2</text>
      <rect fill="none" x="385.8" width="62.8" height="24.4" y="167.8" clip-path="url(#clipPath2)"/>
      <text x="388.9197" xml:space="preserve" y="184.7139" clip-path="url(#clipPath2)" font-family="sans-serif" stroke="none">Магазин 3</text>
      <rect fill="none" x="478.6" width="62.8" height="24.4" y="167.8" clip-path="url(#clipPath2)"/>
      <text x="481.7197" xml:space="preserve" y="184.7139" clip-path="url(#clipPath2)" font-family="sans-serif" stroke="none">Магазин 4</text>
      <rect fill="none" x="568.6" width="62.8" height="24.4" y="167.8" clip-path="url(#clipPath2)"/>
      <text x="571.7197" xml:space="preserve" y="184.7139" clip-path="url(#clipPath2)" font-family="sans-serif" stroke="none">Магазин 5</text>
      <path fill="none" d="M403.0155 42.2 L350.2497 87.5834" clip-path="url(#clipPath2)"/>
      <path d="M344.1845 92.8 L356.5427 88.7658 L351.0079 86.9313 L350.0219 81.1843 Z" clip-path="url(#clipPath2)" stroke="none"/>
      <path fill="none" stroke-dasharray="12,4" d="M432.2955 42.2 L487.9048 87.1429" stroke-width="2" clip-path="url(#clipPath2)"/>
      <path stroke-dasharray="12,4" d="M494.9045 92.8 L487.9406 79.9394 L487.0298 86.4357 L480.8692 88.6892 Z" stroke-width="2" clip-path="url(#clipPath2)" stroke="none"/>
      <path fill="none" d="M315.8155 117.2 L263.0497 162.5834" clip-path="url(#clipPath2)"/>
      <path d="M256.9845 167.8 L269.3427 163.7658 L263.8079 161.9313 L262.8219 156.1843 Z" clip-path="url(#clipPath2)" stroke="none"/>
      <path fill="none" d="M274.2 180 L290.6 180" clip-path="url(#clipPath2)"/>
      <path d="M298.6 180 L286.6 175 L289.6 180 L286.6 185 Z" clip-path="url(#clipPath2)" stroke="none"/>
      <path fill="none" d="M361.4 180 L377.8 180" clip-path="url(#clipPath2)"/>
      <path d="M385.8 180 L373.8 175 L376.8 180 L373.8 185 Z" clip-path="url(#clipPath2)" stroke="none"/>
      <path fill="none" d="M417.2 167.8 L417.2 50.2" clip-path="url(#clipPath2)"/>
      <path d="M417.2 42.2 L412.2 54.2 L417.2 51.2 L422.2 54.2 Z" clip-path="url(#clipPath2)" stroke="none"/>
      <path fill="none" stroke-dasharray="12,4" d="M502.4523 167.8 L429.4828 49.8537" stroke-width="2" clip-path="url(#clipPath2)"/>
      <path stroke-dasharray="12,4" d="M424.7477 42.2 L427.0668 56.64 L430.0747 50.8104 L436.6339 50.7211 Z" stroke-width="2" clip-path="url(#clipPath2)" stroke="none"/>
      <path fill="none" stroke-dasharray="12,4" d="M524.64 117.2 L578.446 162.0383" stroke-width="2" clip-path="url(#clipPath2)"/>
      <path stroke-dasharray="12,4" d="M585.36 167.8 L578.59 154.8363 L577.5817 161.3181 L571.3879 163.4788 Z" stroke-width="2" clip-path="url(#clipPath2)" stroke="none"/>
      <path fill="none" stroke-dasharray="12,4" d="M568.6 180 L550.4 180" stroke-width="2" clip-path="url(#clipPath2)"/>
      <path stroke-dasharray="12,4" d="M541.4 180 L554.9 185.625 L551.525 180 L554.9 174.375 Z" stroke-width="2" clip-path="url(#clipPath2)" stroke="none"/>
    </g>
  </g>
</svg>
